<svg width="101" height="100" viewBox="0 0 101 100" fill="none" xmlns="http://www.w3.org/2000/svg">
<g clip-path="url(#clip0)">
<path d="M73.0348 61.2071C69.4674 70.5518 60.5027 76.7252 50.5003 76.7252C40.4978 76.7252 31.5332 70.5518 27.9658 61.2071L22.9141 56.0347L15.8796 60.5174L9.81062 63.0174C9.07186 63.3356 8.72609 64.1885 9.03476 64.9312L13.5003 75.7588C13.8126 76.5034 14.6666 76.8573 15.4141 76.5519L22.9313 73.4485C25.1733 76.6474 27.9565 79.4306 31.1554 81.6726L28.052 89.1726C27.8973 89.5309 27.8943 89.9367 28.0437 90.2973C28.1931 90.6578 28.4823 90.9425 28.8451 91.0864L39.6554 95.5691C40.0161 95.7256 40.4247 95.7296 40.7884 95.5802C41.152 95.4308 41.4399 95.1408 41.5865 94.776L44.6899 87.276C48.5338 87.9599 52.4688 87.9541 56.3106 87.2588L59.4313 94.776C59.577 95.1374 59.8619 95.425 60.2218 95.5741C60.5817 95.7233 60.9865 95.7215 61.3451 95.5691L72.1554 91.0864C72.5183 90.9425 72.8074 90.6578 72.9568 90.2973C73.1063 89.9367 73.1033 89.5309 72.9485 89.1726L69.8451 81.6554C73.0474 79.4242 75.8314 76.6461 78.0692 73.4485L85.5692 76.5519C85.9299 76.7083 86.3385 76.7123 86.7022 76.563C87.0658 76.4136 87.3537 76.1236 87.5003 75.7588L91.983 64.9485C92.1355 64.5874 92.1375 64.1804 91.9886 63.8178C91.8397 63.4552 91.5522 63.1671 91.1899 63.0174L86.7589 61.1726H86.7416L79.8106 56.0347L73.0348 61.2071Z" fill="#3F5C6C"/>
<path d="M100.5 46.552C100.495 54.6436 93.9364 61.2018 85.8448 61.2072H21.1897C9.76307 61.2072 0.5 51.9441 0.5 40.5175C0.5 29.091 9.76307 19.8279 21.1897 19.8279C21.7241 19.8279 22.2414 19.8451 22.7586 19.8969C26.3082 10.5252 35.2798 4.32205 45.3011 4.31056C55.3225 4.29907 64.3083 10.4816 67.8793 19.8451C68.1207 19.8279 68.3621 19.8279 68.6034 19.8279C76.2759 19.827 83.1155 24.663 85.6724 31.8969H85.8448C93.9364 31.9023 100.495 38.4604 100.5 46.552Z" fill="#B0D3F0"/>
<path d="M10.4498 50.8623C9.92934 50.8632 9.43652 50.6283 9.1096 50.2233C6.12262 46.5258 5.00095 41.6605 6.06759 37.0284C7.13423 32.3963 10.2708 28.5116 14.5741 26.4928C15.4352 26.086 16.463 26.4542 16.8699 27.3153C17.2767 28.1764 16.9084 29.2043 16.0474 29.6111C11.8321 31.6106 9.13856 35.852 9.12133 40.5175C9.11073 43.2624 10.0534 45.9259 11.7884 48.053C12.2066 48.5693 12.2909 49.28 12.0051 49.8798C11.7193 50.4796 11.1142 50.8618 10.4498 50.8623Z" fill="#ECF0F1"/>
<path d="M28.0861 52.5876C27.5319 52.5868 27.0118 52.32 26.6879 51.8704C26.364 51.4208 26.2756 50.843 26.4504 50.3171L33.3469 29.6275C33.6482 28.7241 34.6248 28.236 35.5281 28.5373C36.4315 28.8386 36.9196 29.8151 36.6183 30.7185L29.7218 51.4081C29.4873 52.1124 28.8284 52.5876 28.0861 52.5876Z" fill="#3B97D3"/>
<path d="M41.8791 52.5876C41.1368 52.5876 40.4779 52.1124 40.2434 51.4081L33.3468 30.7185C33.0456 29.8151 33.5337 28.8386 34.437 28.5373C35.3404 28.236 36.3169 28.7241 36.6182 29.6275L43.5148 50.3171C43.6895 50.843 43.6012 51.4208 43.2772 51.8704C42.9533 52.32 42.4332 52.5868 41.8791 52.5876Z" fill="#3B97D3"/>
<path d="M38.9998 43.9663H30.9653C30.0131 43.9663 29.2412 43.1944 29.2412 42.2422C29.2412 41.29 30.0131 40.5181 30.9653 40.5181H38.9998C39.952 40.5181 40.724 41.29 40.724 42.2422C40.724 43.1944 39.952 43.9663 38.9998 43.9663Z" fill="#3B97D3"/>
<path d="M47.0513 52.5867C46.0991 52.5867 45.3271 51.8147 45.3271 50.8625V30.1729C45.3271 29.2207 46.0991 28.4487 47.0513 28.4487C48.0035 28.4487 48.7754 29.2207 48.7754 30.1729V50.8625C48.7754 51.8147 48.0035 52.5867 47.0513 52.5867Z" fill="#3B97D3"/>
<path d="M53.9478 42.2418H47.0513C46.0991 42.2418 45.3271 41.4699 45.3271 40.5177V30.1729C45.3271 29.2207 46.0991 28.4487 47.0513 28.4487H53.9478C57.7567 28.4487 60.8444 31.5364 60.8444 35.3453C60.8444 39.1541 57.7567 42.2418 53.9478 42.2418ZM48.7754 38.7936H53.9478C55.8523 38.7936 57.3961 37.2497 57.3961 35.3453C57.3961 33.4409 55.8523 31.897 53.9478 31.897H48.7754V38.7936Z" fill="#3B97D3"/>
<path d="M67.7417 52.5867C66.7895 52.5867 66.0176 51.8147 66.0176 50.8625V30.1729C66.0176 29.2207 66.7895 28.4487 67.7417 28.4487C68.6939 28.4487 69.4659 29.2207 69.4659 30.1729V50.8625C69.4659 51.8147 68.6939 52.5867 67.7417 52.5867Z" fill="#3B97D3"/>
<path d="M72.9137 31.897H62.5689C61.6166 31.897 60.8447 31.1251 60.8447 30.1729C60.8447 29.2207 61.6166 28.4487 62.5689 28.4487H72.9137C73.8659 28.4487 74.6378 29.2207 74.6378 30.1729C74.6378 31.1251 73.8659 31.897 72.9137 31.897Z" fill="#3B97D3"/>
<path d="M72.9137 52.5869H62.5689C61.6166 52.5869 60.8447 51.815 60.8447 50.8628C60.8447 49.9106 61.6166 49.1387 62.5689 49.1387H72.9137C73.8659 49.1387 74.6378 49.9106 74.6378 50.8628C74.6378 51.815 73.8659 52.5869 72.9137 52.5869Z" fill="#3B97D3"/>
<path d="M31.5343 23.2769C30.9802 23.2761 30.4601 23.0093 30.1362 22.5597C29.8122 22.11 29.7239 21.5322 29.8986 21.0064C33.6962 9.6143 43.2009 9.48292 43.6033 9.48292C44.5555 9.48058 45.3293 10.2506 45.3316 11.2028C45.334 12.155 44.5639 12.9289 43.6117 12.9312C43.2774 12.9362 36.1519 13.1508 33.17 22.0974C32.9355 22.8017 32.2766 23.2768 31.5343 23.2769Z" fill="#ECF0F1"/>
</g>
<defs>
<clipPath id="clip0">
<rect width="100" height="100" fill="white" transform="translate(0.5)"/>
</clipPath>
</defs>
</svg>
