<svg width="25" height="25" viewBox="0 0 25 25" fill="none" xmlns="http://www.w3.org/2000/svg">
<path fill-rule="evenodd" clip-rule="evenodd" d="M16.33 4.10777C14.5572 3.31787 12.5766 3.12218 10.6836 3.5499C8.7905 3.97761 7.08641 5.0058 5.82545 6.48113C4.56448 7.95646 3.8142 9.79987 3.6865 11.7364C3.55881 13.673 4.06053 15.599 5.11686 17.2271C6.17318 18.8553 7.72751 20.0983 9.54802 20.7709C11.3685 21.4435 13.3577 21.5096 15.2188 20.9593C17.08 20.409 18.7133 19.2718 19.8754 17.7174C21.0374 16.163 21.6659 14.2745 21.667 12.3338V11.4143C21.667 10.8621 22.1147 10.4143 22.667 10.4143C23.2193 10.4143 23.667 10.8621 23.667 11.4143V12.3343C23.6656 14.7064 22.8975 17.0151 21.4773 18.9149C20.057 20.8148 18.0606 22.2046 15.7859 22.8772C13.5112 23.5498 11.08 23.469 8.85491 22.6469C6.62984 21.8249 4.73011 20.3056 3.43905 18.3157C2.14799 16.3257 1.53476 13.9718 1.69084 11.6049C1.84691 9.23793 2.76392 6.98487 4.3051 5.18169C5.84628 3.37851 7.92906 2.12183 10.2428 1.59907C12.5565 1.07631 14.9773 1.31548 17.144 2.28091C17.6485 2.50569 17.8752 3.09687 17.6504 3.60134C17.4256 4.10581 16.8345 4.33255 16.33 4.10777Z" fill="white"/>
<path fill-rule="evenodd" clip-rule="evenodd" d="M23.3738 3.62688C23.7645 4.01721 23.7648 4.65037 23.3745 5.04109L13.3745 15.0511C13.187 15.2388 12.9326 15.3443 12.6672 15.3443C12.4019 15.3444 12.1475 15.239 11.9599 15.0514L8.95989 12.0514C8.56937 11.6609 8.56937 11.0278 8.95989 10.6372C9.35042 10.2467 9.98358 10.2467 10.3741 10.6372L12.6666 12.9298L21.9595 3.62758C22.3499 3.23687 22.983 3.23655 23.3738 3.62688Z" fill="white"/>
</svg>
