<svg width="16" height="17" viewBox="0 0 16 17" fill="none" xmlns="http://www.w3.org/2000/svg">
<path d="M14.6667 2.5H1.33333C0.6 2.5 0 3.1 0 3.83333V13.1667C0 13.9 0.6 14.5 1.33333 14.5H14.6667C15.4 14.5 15.9933 13.9 15.9933 13.1667L16 3.83333C16 3.1 15.4 2.5 14.6667 2.5ZM5.33333 4.5C6.44 4.5 7.33333 5.39333 7.33333 6.5C7.33333 7.60667 6.44 8.5 5.33333 8.5C4.22667 8.5 3.33333 7.60667 3.33333 6.5C3.33333 5.39333 4.22667 4.5 5.33333 4.5ZM9.33333 12.5H1.33333V11.8333C1.33333 10.5 4 9.76667 5.33333 9.76667C6.66667 9.76667 9.33333 10.5 9.33333 11.8333V12.5ZM11.9 9.83333H12.9933L14 11.1667L12.6733 12.4933C11.8 11.84 11.1533 10.9067 10.8533 9.83333C10.7333 9.40667 10.6667 8.96 10.6667 8.5C10.6667 8.04 10.7333 7.59333 10.8533 7.16667C11.1533 6.08667 11.8 5.16 12.6733 4.50667L14 5.83333L12.9933 7.16667H11.9C11.7533 7.58667 11.6667 8.03333 11.6667 8.5C11.6667 8.96667 11.7533 9.41333 11.9 9.83333V9.83333Z" fill="black"/>
</svg>
