<svg width="101" height="101" viewBox="0 0 101 101" fill="none" xmlns="http://www.w3.org/2000/svg">
<g clip-path="url(#clip0)">
<path d="M100.292 13H0.333496V88H100.333L100.292 13ZM33.6668 25.5C40.5835 25.5 46.1668 31.0833 46.1668 38C46.1668 44.9167 40.5835 50.5 33.6668 50.5C26.7502 50.5 21.1668 44.9167 21.1668 38C21.1668 31.0833 26.7502 25.5 33.6668 25.5ZM58.6668 75.5H8.66683V71.3333C8.66683 63 25.3335 58.4167 33.6668 58.4167C42.0002 58.4167 58.6668 63 58.6668 71.3333V75.5ZM74.7085 58.8333H81.5418L87.8335 67.1667L79.5418 75.4583C74.0835 71.375 70.0418 65.5417 68.1668 58.8333C67.4168 56.1667 67.0002 53.375 67.0002 50.5C67.0002 47.625 67.4168 44.8333 68.1668 42.1667C70.0418 35.4167 74.0835 29.625 79.5418 25.5417L87.8335 33.8333L81.5418 42.1667H74.7085C73.7918 44.7917 73.2502 47.5833 73.2502 50.5C73.2502 53.4167 73.7918 56.2083 74.7085 58.8333Z" fill="#1A2C42"/>
</g>
<defs>
<clipPath id="clip0">
<rect width="100" height="100" fill="white" transform="translate(0.333496 0.5)"/>
</clipPath>
</defs>
</svg>
