<svg width="16" height="17" viewBox="0 0 16 17" fill="none" xmlns="http://www.w3.org/2000/svg">
<path d="M8.66683 1.8667V3.8867C10.9268 4.21337 12.6668 6.1467 12.6668 8.50003C12.6668 9.10003 12.5468 9.6667 12.3468 10.1934L14.0802 11.2134C14.4535 10.3867 14.6668 9.4667 14.6668 8.50003C14.6668 5.0467 12.0335 2.20003 8.66683 1.8667V1.8667ZM8.00016 13.1667C5.42016 13.1667 3.3335 11.08 3.3335 8.50003C3.3335 6.1467 5.0735 4.21337 7.3335 3.8867V1.8667C3.96016 2.20003 1.3335 5.04003 1.3335 8.50003C1.3335 12.18 4.3135 15.1667 7.9935 15.1667C10.2002 15.1667 12.1535 14.0934 13.3668 12.44L11.6335 11.42C10.7802 12.4867 9.4735 13.1667 8.00016 13.1667Z" fill="black"/>
</svg>
