<svg width="16" height="17" viewBox="0 0 16 17" fill="none" xmlns="http://www.w3.org/2000/svg">
<path d="M12.6667 2.5H3.32667C2.58667 2.5 2.00667 3.09333 2.00667 3.83333L2 13.1667C2 13.9 2.58667 14.5 3.32667 14.5H12.6667C13.4 14.5 14 13.9 14 13.1667V3.83333C14 3.09333 13.4 2.5 12.6667 2.5ZM12.6667 10.5H10.58C10.2667 10.5 10.0133 10.7267 9.92667 11.0333C9.69333 11.88 8.91333 12.5 8 12.5C7.08667 12.5 6.30667 11.88 6.07333 11.0333C5.98667 10.7267 5.73333 10.5 5.42 10.5H3.33333V4.5C3.33333 4.13333 3.63333 3.83333 4 3.83333H12C12.3667 3.83333 12.6667 4.13333 12.6667 4.5V10.5Z" fill="black"/>
</svg>
