<svg width="16" height="17" viewBox="0 0 16 17" fill="none" xmlns="http://www.w3.org/2000/svg">
<path d="M13.9998 5.8335C13.0332 5.8335 12.4932 6.7935 12.7132 7.50683L10.3465 9.88016C10.1465 9.82016 9.85317 9.82016 9.65317 9.88016L7.95317 8.18016C8.17984 7.46683 7.63984 6.50016 6.6665 6.50016C5.69984 6.50016 5.15317 7.46016 5.37984 8.18016L2.33984 11.2135C1.6265 10.9935 0.666504 11.5335 0.666504 12.5002C0.666504 13.2335 1.2665 13.8335 1.99984 13.8335C2.9665 13.8335 3.5065 12.8735 3.2865 12.1602L6.31984 9.12016C6.51984 9.18016 6.81317 9.18016 7.01317 9.12016L8.71317 10.8202C8.4865 11.5335 9.0265 12.5002 9.99984 12.5002C10.9665 12.5002 11.5132 11.5402 11.2865 10.8202L13.6598 8.4535C14.3732 8.6735 15.3332 8.1335 15.3332 7.16683C15.3332 6.4335 14.7332 5.8335 13.9998 5.8335Z" fill="black"/>
<path d="M10 6.5L10.6267 5.12L12 4.5L10.6267 3.88L10 2.5L9.38667 3.88L8 4.5L9.38667 5.12L10 6.5Z" fill="black"/>
<path d="M2.33317 7.83333L2.6665 6.5L3.99984 6.16667L2.6665 5.83333L2.33317 4.5L1.99984 5.83333L0.666504 6.16667L1.99984 6.5L2.33317 7.83333Z" fill="black"/>
</svg>
