<svg width="101" height="100" viewBox="0 0 101 100" fill="none" xmlns="http://www.w3.org/2000/svg">
<path d="M14.4228 0H67.1276C69.8567 0 72.069 2.21231 72.069 4.94138V95.0584C72.069 97.7875 69.8567 99.9998 67.1276 99.9998H14.4228C11.6938 99.9998 9.48145 97.7875 9.48145 95.0584V4.94138C9.48121 2.21231 11.6935 0 14.4228 0V0Z" fill="#575B6D"/>
<path d="M13.2451 8.70605H68.3036V85.6476H13.2451V8.70605Z" fill="#CED3DA"/>
<path d="M40.7752 96.1246C42.7022 96.1246 44.2643 94.5625 44.2643 92.6356C44.2643 90.7086 42.7022 89.1465 40.7752 89.1465C38.8482 89.1465 37.2861 90.7086 37.2861 92.6356C37.2861 94.5625 38.8482 96.1246 40.7752 96.1246Z" fill="#828A9E"/>
<path d="M45.1907 3.4585H36.353C35.7546 3.4585 35.2695 3.94361 35.2695 4.54192C35.2695 5.14023 35.7546 5.62534 36.353 5.62534H45.1858C45.7841 5.62534 46.2692 5.14023 46.2692 4.54192C46.2692 3.94361 45.7841 3.4585 45.1858 3.4585H45.1907Z" fill="#828A9E"/>
<path d="M91.5177 24.0183V43.9404C91.5184 46.8426 89.1662 49.1958 86.2639 49.1965C86.2632 49.1965 86.2623 49.1965 86.2616 49.1965H65.9322L52.6724 57.633L53.6579 49.1965H50.3469C47.4447 49.1972 45.0915 46.845 45.0908 43.9427C45.0908 43.942 45.0908 43.9411 45.0908 43.9404V24.0183C45.0901 21.1161 47.4423 18.7629 50.3446 18.7622H50.3469H86.2616C89.1639 18.7615 91.517 21.1137 91.5177 24.0157V24.0183Z" fill="#EEEFEE"/>
<path d="M57.6221 39.845C56.433 39.9371 55.2523 39.5833 54.31 38.8523C53.5839 38.2017 53.1654 37.2758 53.1562 36.3011H54.4977C54.5237 37.0025 54.887 37.6482 55.4733 38.0339C56.1026 38.422 56.8319 38.617 57.5708 38.595C58.2298 38.6262 58.8832 38.4593 59.4463 38.1157C59.897 37.8392 60.1675 37.3445 60.1574 36.8158C60.1862 36.2882 59.8984 35.7942 59.4257 35.5585C58.6172 35.1947 57.7663 34.9344 56.8928 34.7827C55.9601 34.6421 55.0752 34.2782 54.3135 33.7218C53.7916 33.2695 53.5036 32.6046 53.5305 31.9145C53.5172 31.0961 53.8954 30.3209 54.5488 29.8278C55.3294 29.2524 56.2851 28.9646 57.2537 29.0132C58.2711 28.9642 59.2762 29.2531 60.1122 29.835C60.8365 30.3851 61.2621 31.2426 61.2621 32.1521H59.9012C59.763 30.8847 58.8958 30.2508 57.3001 30.2508C56.6721 30.2135 56.0473 30.3651 55.5061 30.6862C55.1061 30.9339 54.8649 31.3731 54.8708 31.8435C54.8497 32.2407 55.0454 32.618 55.3817 32.8301C55.9805 33.1399 56.624 33.3541 57.2891 33.4654C58.0407 33.6213 58.7817 33.8249 59.5075 34.0752C60.0449 34.2686 60.5274 34.5885 60.9148 35.0082C61.3224 35.4769 61.5323 36.0855 61.5002 36.7059C61.5124 37.5809 61.1145 38.4113 60.4245 38.9498C59.627 39.573 58.6331 39.8903 57.6221 39.845Z" fill="#575B6D"/>
<path d="M73.2781 39.6671H71.9634V30.7562L68.9767 39.6671H67.7328L64.7462 30.7562V39.6671H63.4268V29.1914H65.506L68.3426 37.923L71.1937 29.1914H73.2729L73.2781 39.6671Z" fill="#575B6D"/>
<path d="M79.5733 39.845C78.3842 39.9371 77.2035 39.5833 76.2612 38.8523C75.5351 38.2017 75.1166 37.2758 75.1074 36.3011H76.4489C76.4749 37.0025 76.8381 37.6482 77.4245 38.0339C78.0537 38.422 78.7831 38.617 79.522 38.595C80.181 38.6262 80.8344 38.4593 81.3975 38.1157C81.8482 37.8392 82.1186 37.3445 82.1086 36.8158C82.1374 36.2882 81.8496 35.7942 81.3769 35.5585C80.5684 35.1947 79.7174 34.9344 78.844 34.7827C77.9113 34.6421 77.0263 34.2782 76.2647 33.7218C75.7428 33.2695 75.4547 32.6046 75.4817 31.9145C75.4683 31.0961 75.8466 30.3209 76.5 29.8278C77.2806 29.2524 78.2363 28.9646 79.2049 29.0132C80.2222 28.9642 81.2274 29.2531 82.0633 29.835C82.7877 30.3851 83.2133 31.2426 83.2133 32.1521H81.8524C81.7141 30.8847 80.847 30.2508 79.2513 30.2508C78.6232 30.2135 77.9984 30.3651 77.4573 30.6862C77.0573 30.9339 76.8161 31.3731 76.822 31.8435C76.8009 32.2407 76.9966 32.618 77.3329 32.8301C77.9316 33.1399 78.5752 33.3541 79.2403 33.4654C79.9919 33.6213 80.7329 33.8249 81.4587 34.0752C81.9961 34.2686 82.4788 34.5885 82.866 35.0082C83.2735 35.4769 83.4835 36.0855 83.4514 36.7059C83.4636 37.5809 83.0657 38.4113 82.3757 38.9498C81.578 39.573 80.5841 39.8903 79.5733 39.845Z" fill="#575B6D"/>
</svg>
