<svg width="25" height="24" viewBox="0 0 25 24" fill="none" xmlns="http://www.w3.org/2000/svg">
<path d="M12.3335 4.5C7.3335 4.5 3.0635 7.61 1.3335 12C3.0635 16.39 7.3335 19.5 12.3335 19.5C17.3335 19.5 21.6035 16.39 23.3335 12C21.6035 7.61 17.3335 4.5 12.3335 4.5ZM12.3335 17C9.5735 17 7.3335 14.76 7.3335 12C7.3335 9.24 9.5735 7 12.3335 7C15.0935 7 17.3335 9.24 17.3335 12C17.3335 14.76 15.0935 17 12.3335 17ZM12.3335 9C10.6735 9 9.3335 10.34 9.3335 12C9.3335 13.66 10.6735 15 12.3335 15C13.9935 15 15.3335 13.66 15.3335 12C15.3335 10.34 13.9935 9 12.3335 9Z" fill="white"/>
</svg>
