<svg width="16" height="17" viewBox="0 0 16 17" fill="none" xmlns="http://www.w3.org/2000/svg">
<path d="M12.9532 9.1535C12.9799 8.94016 12.9999 8.72683 12.9999 8.50016C12.9999 8.2735 12.9799 8.06016 12.9532 7.84683L14.3599 6.74683C14.4866 6.64683 14.5199 6.46683 14.4399 6.32016L13.1066 4.0135C13.0266 3.86683 12.8466 3.8135 12.6999 3.86683L11.0399 4.5335C10.6932 4.26683 10.3199 4.04683 9.91323 3.88016L9.65989 2.1135C9.63989 1.9535 9.49989 1.8335 9.33323 1.8335H6.66656C6.49989 1.8335 6.35989 1.9535 6.33989 2.1135L6.08656 3.88016C5.67989 4.04683 5.30656 4.2735 4.95989 4.5335L3.29989 3.86683C3.14656 3.80683 2.97323 3.86683 2.89323 4.0135L1.55989 6.32016C1.47323 6.46683 1.51323 6.64683 1.63989 6.74683L3.04656 7.84683C3.01989 8.06016 2.99989 8.28016 2.99989 8.50016C2.99989 8.72016 3.01989 8.94016 3.04656 9.1535L1.63989 10.2535C1.51323 10.3535 1.47989 10.5335 1.55989 10.6802L2.89323 12.9868C2.97323 13.1335 3.15323 13.1868 3.29989 13.1335L4.95989 12.4668C5.30656 12.7335 5.67989 12.9535 6.08656 13.1202L6.33989 14.8868C6.35989 15.0468 6.49989 15.1668 6.66656 15.1668H9.33323C9.49989 15.1668 9.63989 15.0468 9.65989 14.8868L9.91323 13.1202C10.3199 12.9535 10.6932 12.7268 11.0399 12.4668L12.6999 13.1335C12.8532 13.1935 13.0266 13.1335 13.1066 12.9868L14.4399 10.6802C14.5199 10.5335 14.4866 10.3535 14.3599 10.2535L12.9532 9.1535V9.1535ZM7.99989 10.8335C6.71323 10.8335 5.66656 9.78683 5.66656 8.50016C5.66656 7.2135 6.71323 6.16683 7.99989 6.16683C9.28656 6.16683 10.3332 7.2135 10.3332 8.50016C10.3332 9.78683 9.28656 10.8335 7.99989 10.8335Z" fill="black"/>
</svg>
