<svg width="16" height="17" viewBox="0 0 16 17" fill="none" xmlns="http://www.w3.org/2000/svg">
<path d="M12.983 9.12448L12.9767 9.1371C13.0019 8.92892 13.0272 8.71443 13.0272 8.49994C13.0272 8.28545 13.0082 8.08357 12.983 7.87539L12.9893 7.88801L14.5286 6.67677L12.9956 4.01457L11.1851 4.74636L11.1914 4.75267C10.8633 4.50033 10.5038 4.28584 10.1126 4.12182H10.1189L9.82875 2.19141H6.7565L6.47892 4.12813H6.48523C6.0941 4.29215 5.73451 4.50664 5.40647 4.75898L5.41278 4.75267L3.59592 4.01457L2.05664 6.67677L3.59592 7.88801L3.60223 7.87539C3.577 8.08357 3.55807 8.28545 3.55807 8.49994C3.55807 8.71443 3.577 8.92892 3.60854 9.1371L3.60223 9.12448L2.27744 10.1654L2.06926 10.3294L3.60223 12.979L5.41909 12.2535L5.40647 12.2283C5.74082 12.4869 6.10041 12.7014 6.49785 12.8654H6.47892L6.7628 14.8085H9.82244C9.82244 14.8085 9.84137 14.6949 9.86029 14.5435L10.1 12.8717H10.0937C10.4848 12.7077 10.8507 12.4932 11.1851 12.2346L11.1725 12.2598L12.9893 12.9853L14.5223 10.3357C14.5223 10.3357 14.434 10.26 14.3141 10.1717L12.983 9.12448ZM8.28947 10.7079C7.07192 10.7079 6.08148 9.71748 6.08148 8.49994C6.08148 7.28239 7.07192 6.29195 8.28947 6.29195C9.50702 6.29195 10.4975 7.28239 10.4975 8.49994C10.4975 9.71748 9.50702 10.7079 8.28947 10.7079Z" fill="white"/>
</svg>
