<svg width="16" height="17" viewBox="0 0 16 17" fill="none" xmlns="http://www.w3.org/2000/svg">
<path d="M7.99333 1.8335C4.31333 1.8335 1.32666 4.82016 1.32666 8.50016C1.32666 12.1802 4.31333 15.1668 7.99333 15.1668C11.6733 15.1668 14.66 12.1802 14.66 8.50016C14.66 4.82016 11.6733 1.8335 7.99333 1.8335V1.8335ZM10.4 6.06016C11.1133 6.06016 11.6867 6.6335 11.6867 7.34683C11.6867 8.06016 11.1133 8.6335 10.4 8.6335C9.68666 8.6335 9.11333 8.06016 9.11333 7.34683C9.10666 6.6335 9.68666 6.06016 10.4 6.06016V6.06016ZM6.39999 5.00683C7.26666 5.00683 7.97333 5.7135 7.97333 6.58016C7.97333 7.44683 7.26666 8.1535 6.39999 8.1535C5.53333 8.1535 4.82666 7.44683 4.82666 6.58016C4.82666 5.70683 5.52666 5.00683 6.39999 5.00683ZM6.39999 11.0935V13.5935C4.79999 13.0935 3.53333 11.8602 2.97333 10.2868C3.67333 9.54016 5.41999 9.16016 6.39999 9.16016C6.75333 9.16016 7.19999 9.2135 7.66666 9.30683C6.57333 9.88683 6.39999 10.6535 6.39999 11.0935ZM7.99333 13.8335C7.81333 13.8335 7.63999 13.8268 7.46666 13.8068V11.0935C7.46666 10.1468 9.42666 9.6735 10.4 9.6735C11.1133 9.6735 12.3467 9.9335 12.96 10.4402C12.18 12.4202 10.2533 13.8335 7.99333 13.8335V13.8335Z" fill="black"/>
</svg>
