<svg width="85" height="84" viewBox="0 0 85 84" fill="none" xmlns="http://www.w3.org/2000/svg">
<path d="M42.5002 0.333496C19.5002 0.333496 0.833496 19.0002 0.833496 42.0002C0.833496 65.0002 19.5002 83.6668 42.5002 83.6668C65.5002 83.6668 84.1668 65.0002 84.1668 42.0002C84.1668 19.0002 65.5002 0.333496 42.5002 0.333496ZM57.5418 26.7502C62.0002 26.7502 65.5835 30.3335 65.5835 34.7918C65.5835 39.2502 62.0002 42.8335 57.5418 42.8335C53.0835 42.8335 49.5002 39.2502 49.5002 34.7918C49.4585 30.3335 53.0835 26.7502 57.5418 26.7502ZM32.5418 20.1668C37.9585 20.1668 42.3752 24.5835 42.3752 30.0002C42.3752 35.4168 37.9585 39.8335 32.5418 39.8335C27.1252 39.8335 22.7085 35.4168 22.7085 30.0002C22.7085 24.5418 27.0835 20.1668 32.5418 20.1668ZM32.5418 58.2085V73.8335C22.5418 70.7085 14.6252 63.0002 11.1252 53.1668C15.5002 48.5002 26.4168 46.1252 32.5418 46.1252C34.7502 46.1252 37.5418 46.4585 40.4585 47.0418C33.6252 50.6668 32.5418 55.4585 32.5418 58.2085ZM42.5002 75.3335C41.3752 75.3335 40.2918 75.2918 39.2085 75.1668V58.2085C39.2085 52.2918 51.4585 49.3335 57.5418 49.3335C62.0002 49.3335 69.7085 50.9585 73.5418 54.1252C68.6668 66.5002 56.6252 75.3335 42.5002 75.3335Z" fill="#247331"/>
</svg>
