<svg width="25" height="25" viewBox="0 0 25 25" fill="none" xmlns="http://www.w3.org/2000/svg">
<path d="M12.1665 2.5C6.6465 2.5 2.1665 6.98 2.1665 12.5C2.1665 18.02 6.6465 22.5 12.1665 22.5C17.6865 22.5 22.1665 18.02 22.1665 12.5C22.1665 6.98 17.6865 2.5 12.1665 2.5ZM19.6265 9.62L16.8465 10.77C16.3365 9.41 15.2665 8.33 13.8965 7.83L15.0465 5.05C17.1465 5.85 18.8165 7.52 19.6265 9.62ZM12.1665 15.5C10.5065 15.5 9.1665 14.16 9.1665 12.5C9.1665 10.84 10.5065 9.5 12.1665 9.5C13.8265 9.5 15.1665 10.84 15.1665 12.5C15.1665 14.16 13.8265 15.5 12.1665 15.5ZM9.2965 5.04L10.4665 7.82C9.0865 8.32 7.9965 9.41 7.4865 10.79L4.7065 9.63C5.5165 7.52 7.1865 5.85 9.2965 5.04ZM4.7065 15.37L7.4865 14.22C7.9965 15.6 9.0765 16.68 10.4565 17.18L9.2865 19.96C7.1865 19.15 5.5165 17.48 4.7065 15.37ZM15.0465 19.96L13.8965 17.18C15.2665 16.67 16.3465 15.59 16.8465 14.21L19.6265 15.38C18.8165 17.48 17.1465 19.15 15.0465 19.96Z" fill="white"/>
</svg>
