<svg width="25" height="25" viewBox="0 0 25 25" fill="none" xmlns="http://www.w3.org/2000/svg">
<path d="M12.6665 2.5C7.1465 2.5 2.6665 6.98 2.6665 12.5C2.6665 18.02 7.1465 22.5 12.6665 22.5C18.1865 22.5 22.6665 18.02 22.6665 12.5C22.6665 6.98 18.1865 2.5 12.6665 2.5ZM20.1265 9.62L17.3465 10.77C16.8365 9.41 15.7665 8.33 14.3965 7.83L15.5465 5.05C17.6465 5.85 19.3165 7.52 20.1265 9.62ZM12.6665 15.5C11.0065 15.5 9.6665 14.16 9.6665 12.5C9.6665 10.84 11.0065 9.5 12.6665 9.5C14.3265 9.5 15.6665 10.84 15.6665 12.5C15.6665 14.16 14.3265 15.5 12.6665 15.5ZM9.7965 5.04L10.9665 7.82C9.5865 8.32 8.4965 9.41 7.9865 10.79L5.2065 9.63C6.0165 7.52 7.6865 5.85 9.7965 5.04ZM5.2065 15.37L7.9865 14.22C8.4965 15.6 9.5765 16.68 10.9565 17.18L9.7865 19.96C7.6865 19.15 6.0165 17.48 5.2065 15.37ZM15.5465 19.96L14.3965 17.18C15.7665 16.67 16.8465 15.59 17.3465 14.21L20.1265 15.38C19.3165 17.48 17.6465 19.15 15.5465 19.96Z" fill="#1A2C42"/>
</svg>
