<svg width="20" height="19" viewBox="0 0 20 19" fill="none" xmlns="http://www.w3.org/2000/svg">
<path d="M7 11.7773C7.55228 11.7773 8 11.3296 8 10.7773C8 10.2251 7.55228 9.77734 7 9.77734C6.44772 9.77734 6 10.2251 6 10.7773C6 11.3296 6.44772 11.7773 7 11.7773Z" fill="white"/>
<path d="M13 11.7773C13.5523 11.7773 14 11.3296 14 10.7773C14 10.2251 13.5523 9.77734 13 9.77734C12.4477 9.77734 12 10.2251 12 10.7773C12 11.3296 12.4477 11.7773 13 11.7773Z" fill="white"/>
<path d="M16 8.80734C15.52 5.95734 13.04 3.77734 10.05 3.77734C7.01997 3.77734 3.75997 6.28734 4.01997 10.2273C6.48997 9.21734 8.34997 7.01734 8.87997 4.33734C10.19 6.96734 12.88 8.77734 16 8.80734Z" fill="white"/>
<path d="M18.99 9.77734C18.88 4.40734 14.68 0.777344 10 0.777344C5.39 0.777344 1.15 4.30734 1.01 9.77734H0V15.7773H3V9.96734C3 6.13734 5.95 2.78734 9.78 2.67734C13.74 2.55734 17 5.73734 17 9.67734V16.7773H9V18.7773H19V15.7773H20V9.77734H18.99Z" fill="white"/>
</svg>
