<svg width="16" height="17" viewBox="0 0 16 17" fill="none" xmlns="http://www.w3.org/2000/svg">
<path d="M9.44667 2.5H3.33333C2.6 2.5 2 3.1 2 3.83333V13.1667C2 13.9 2.6 14.5 3.33333 14.5H12.6667C13.4 14.5 14 13.9 14 13.1667V7.05333C14 6.7 13.86 6.36 13.6067 6.11333L10.3867 2.89333C10.14 2.64 9.8 2.5 9.44667 2.5ZM5.33333 10.5H10.6667C11.0333 10.5 11.3333 10.8 11.3333 11.1667C11.3333 11.5333 11.0333 11.8333 10.6667 11.8333H5.33333C4.96667 11.8333 4.66667 11.5333 4.66667 11.1667C4.66667 10.8 4.96667 10.5 5.33333 10.5ZM5.33333 7.83333H10.6667C11.0333 7.83333 11.3333 8.13333 11.3333 8.5C11.3333 8.86667 11.0333 9.16667 10.6667 9.16667H5.33333C4.96667 9.16667 4.66667 8.86667 4.66667 8.5C4.66667 8.13333 4.96667 7.83333 5.33333 7.83333ZM5.33333 5.16667H8.66667C9.03333 5.16667 9.33333 5.46667 9.33333 5.83333C9.33333 6.2 9.03333 6.5 8.66667 6.5H5.33333C4.96667 6.5 4.66667 6.2 4.66667 5.83333C4.66667 5.46667 4.96667 5.16667 5.33333 5.16667Z" fill="black"/>
</svg>
