<svg width="34" height="34" viewBox="0 0 34 34" fill="none" xmlns="http://www.w3.org/2000/svg">
<path d="M16.9999 0.333496C7.79992 0.333496 0.333252 7.80016 0.333252 17.0002C0.333252 26.2002 7.79992 33.6668 16.9999 33.6668C26.1999 33.6668 33.6666 26.2002 33.6666 17.0002C33.6666 7.80016 26.1999 0.333496 16.9999 0.333496ZM16.9999 5.3335C19.7666 5.3335 21.9999 7.56683 21.9999 10.3335C21.9999 13.1002 19.7666 15.3335 16.9999 15.3335C14.2333 15.3335 11.9999 13.1002 11.9999 10.3335C11.9999 7.56683 14.2333 5.3335 16.9999 5.3335ZM16.9999 29.0002C15.0197 29.0002 13.0702 28.5101 11.3254 27.5737C9.58054 26.6373 8.09455 25.2837 6.99992 23.6335C7.04992 20.3168 13.6666 18.5002 16.9999 18.5002C20.3166 18.5002 26.9499 20.3168 26.9999 23.6335C25.9053 25.2837 24.4193 26.6373 22.6745 27.5737C20.9296 28.5101 18.9802 29.0002 16.9999 29.0002Z" fill="#247331"/>
</svg>
