<svg width="101" height="100" viewBox="0 0 101 100" fill="none" xmlns="http://www.w3.org/2000/svg">
<g clip-path="url(#clip0)">
<path d="M100.5 48.7167C100.5 75.6042 78.5291 97.4375 51.4209 97.4375C42.8251 97.4375 34.7292 95.2209 27.6958 91.3791L0.5 100L9.37497 73.85C4.89158 66.5168 2.31255 57.9126 2.31255 48.7208C2.31255 21.8209 24.2916 0 51.4207 0C78.5291 0 100.5 21.8209 100.5 48.7167ZM51.4207 7.75841C28.6666 7.75841 10.1333 26.1209 10.1333 48.7208C10.1333 57.6958 13.0582 65.9958 17.9917 72.7458L12.8499 87.9167L28.7124 82.9042C35.2209 87.1875 43.029 89.6584 51.4207 89.6584C74.1582 89.6584 92.6874 71.2875 92.6874 48.6876C92.6874 26.1251 74.1582 7.75841 51.4207 7.75841ZM76.1917 59.9416C75.8999 59.4542 75.1 59.1582 73.9125 58.5166C72.6751 57.9208 66.7834 55.0666 65.6501 54.6749C64.571 54.2748 63.7708 54.079 62.9709 55.2665C62.1333 56.4456 59.8542 59.1624 59.1584 59.9414C58.4168 60.733 57.725 60.8332 56.5334 60.2415C55.3585 59.6541 51.4584 58.3874 46.8708 54.3041C43.3041 51.1583 40.875 47.254 40.1792 46.0416C39.4625 44.8374 40.096 44.1958 40.696 43.6084C41.2585 43.0667 41.9043 42.2001 42.5001 41.5085C43.1211 40.8211 43.3168 40.3294 43.7127 39.5376C44.1128 38.7209 43.9084 38.0335 43.6127 37.4168C43.3168 36.821 40.8919 30.9586 39.9002 28.5627C38.8878 26.1753 37.9044 26.5712 37.2085 26.5712C36.4834 26.5712 35.7002 26.4712 34.8835 26.4712C34.092 26.4712 32.7836 26.7629 31.6669 27.9753C30.5794 29.1586 27.4585 32.0461 27.4585 37.9294C27.4585 43.796 31.7668 49.4961 32.3836 50.2793C32.9836 51.0709 40.696 63.4959 52.9419 68.2794C65.1712 73.0626 65.1712 71.4835 67.3961 71.2835C69.5669 71.0836 74.5211 68.3835 75.5128 65.6169C76.4874 62.804 76.4874 60.4375 76.1917 59.9416Z" fill="#2DB742"/>
</g>
<defs>
<clipPath id="clip0">
<rect width="100" height="100" fill="white" transform="translate(0.5)"/>
</clipPath>
</defs>
</svg>
