<svg width="1440" height="2298" viewBox="0 0 1440 2298" fill="none" xmlns="http://www.w3.org/2000/svg">
<g clip-path="url(#clip0)">
<path d="M188.666 1120.14L87.7461 1097.02L73.0832 1161.02L174.003 1184.14L188.666 1120.14Z" fill="#EBEBEB"/>
<path d="M188.651 1120.21C183.679 1123.17 178.678 1125.95 173.684 1128.85C168.691 1131.76 163.639 1134.45 158.663 1137.2C153.686 1139.96 148.168 1142.93 142.932 1145.75L142.465 1146.02L128.498 1153.44L127.808 1153.78L127.349 1153.18L118.009 1140.4L117.689 1139.96C114.177 1135.15 110.691 1130.3 107.232 1125.41C103.929 1120.78 100.612 1116.05 97.3573 1111.37C94.1028 1106.68 90.7676 1101.88 87.6473 1097.07C91.2136 1101.39 94.6714 1105.88 98.1815 1110.29C101.692 1114.71 105.129 1119.21 108.558 1123.75C112.392 1128.74 116.206 1133.79 120.001 1138.9C122.848 1142.69 125.688 1146.51 128.527 1150.33C132.731 1148.12 136.955 1145.9 141.164 1143.75C146.797 1140.83 152.431 1137.94 158.065 1135.07C163.114 1132.51 168.172 1129.99 173.239 1127.51C178.507 1125.01 183.592 1122.55 188.651 1120.21Z" fill="white"/>
<path d="M119.93 1140.35L119.791 1140.43C119.151 1140.77 118.493 1141.09 117.817 1141.39C114.794 1142.96 111.744 1144.42 108.642 1145.79C104.868 1147.5 101.05 1149.1 97.1988 1150.69C93.3474 1152.28 89.4971 1153.71 85.6635 1155.14C81.8298 1156.58 77.8321 1157.89 73.8225 1159.02C77.5004 1157.04 81.2528 1155.27 85.0233 1153.58C88.7938 1151.88 92.6362 1150.26 96.4504 1148.68C100.265 1147.1 104.16 1145.62 108.089 1144.23C111.204 1143.1 114.344 1142.02 117.559 1141.14L119.78 1140.48L119.93 1140.35Z" fill="white"/>
<path d="M174.227 1182.02C171.11 1179.26 168.151 1176.34 165.254 1173.38C162.357 1170.42 159.533 1167.37 156.725 1164.33C153.918 1161.28 151.141 1158.11 148.554 1154.94C146.377 1152.35 144.262 1149.73 142.24 1147.01L140.888 1145.26C140.888 1145.26 140.887 1145.26 140.794 1145.13L140.925 1145.25L142.634 1146.82C145.083 1149.13 147.432 1151.42 149.815 1153.72C152.729 1156.68 155.536 1159.73 158.34 1162.79C161.144 1165.85 163.845 1168.97 166.494 1172.17C169.143 1175.37 171.777 1178.64 174.227 1182.02Z" fill="white"/>
<path d="M121.372 1553C129.482 1553.06 137.403 1550.55 143.999 1545.83C150.595 1541.11 155.528 1534.43 158.089 1526.73C160.65 1519.04 160.709 1510.73 158.256 1503C155.804 1495.27 150.967 1488.51 144.438 1483.7C137.909 1478.88 130.024 1476.26 121.914 1476.21C113.803 1476.15 105.884 1478.67 99.2907 1483.39C92.6977 1488.12 87.7699 1494.81 85.2137 1502.5C82.6576 1510.2 82.6044 1518.51 85.0618 1526.24C87.4613 1534 92.2812 1540.78 98.8153 1545.59C105.349 1550.41 113.254 1553.01 121.372 1553Z" fill="#EBEBEB"/>
<path d="M109.391 1516.95C110.592 1518.92 112.352 1520.5 114.447 1521.47C116.542 1522.44 118.879 1522.77 121.162 1522.42C123.445 1522.06 125.571 1521.04 127.272 1519.48C128.973 1517.91 130.172 1515.88 130.718 1513.64C131.264 1511.39 131.132 1509.04 130.339 1506.87C129.546 1504.7 128.127 1502.81 126.262 1501.45C124.397 1500.08 122.17 1499.3 119.862 1499.21C117.553 1499.11 115.268 1499.7 113.295 1500.9C111.984 1501.7 110.844 1502.74 109.938 1503.98C109.033 1505.22 108.38 1506.63 108.018 1508.12C107.655 1509.61 107.59 1511.15 107.825 1512.67C108.061 1514.19 108.593 1515.64 109.391 1516.95Z" fill="white"/>
<path d="M118.868 1548.9L121.32 1553.03C128.46 1553.09 135.473 1551.14 141.571 1547.43C147.669 1543.71 152.61 1538.37 155.839 1532L153.398 1527.88C150.612 1523.3 146.12 1520.02 140.912 1518.75C135.703 1517.48 130.205 1518.34 125.626 1521.12C121.047 1523.91 117.762 1528.4 116.495 1533.61C115.228 1538.82 116.082 1544.32 118.868 1548.9Z" fill="white"/>
<g opacity="0.1">
<path d="M712.096 1542.27L705.232 1562.77L720.433 1550.23L779.222 1527.14L712.096 1542.27Z" fill="#247331"/>
<path opacity="0.1" d="M712.096 1542.27L705.232 1562.77L720.433 1550.23L779.222 1527.14L712.096 1542.27Z" fill="black"/>
<path d="M720.433 1550.23L779.222 1527.14L731.802 1575.94L720.433 1550.23Z" fill="#247331"/>
<path d="M712.096 1542.27L687 1527L779.222 1527.14L712.096 1542.27Z" fill="#247331"/>
</g>
<rect opacity="0.1" x="800" y="1024.42" width="1252" height="144.995" rx="72.4973" transform="rotate(-22.0206 800 1024.42)" fill="#247331"/>
<rect opacity="0.1" x="818" y="1351.42" width="1252" height="60.9316" rx="30.4658" transform="rotate(-22.0206 818 1351.42)" fill="#247331"/>
<path d="M1059.54 425L939.099 494.939L983.456 571.327L1103.9 501.388L1059.54 425Z" fill="#EBEBEB"/>
<path d="M1059.59 425.079C1057.42 432.557 1055.06 439.881 1052.81 447.322C1050.57 454.762 1048.08 462.054 1045.72 469.327C1043.35 476.6 1040.66 484.594 1038.09 492.168L1037.89 492.871L1030.97 512.99L1030.6 513.951L1029.6 513.787L1008.69 509.802L1007.97 509.661C1000.1 508.156 992.214 506.586 984.32 504.952C976.822 503.433 969.226 501.838 961.722 500.217C954.217 498.596 946.535 496.945 939.046 495.076C946.521 496.05 954.043 497.289 961.547 498.406C969.051 499.522 976.564 500.793 984.101 502.103C992.453 503.489 1000.84 504.952 1009.26 506.491C1015.54 507.602 1021.84 508.753 1028.14 509.903C1030.25 503.872 1032.36 497.809 1034.52 491.825C1037.38 483.786 1040.26 475.77 1043.17 467.777C1045.78 460.625 1048.44 453.502 1051.14 446.407C1054.03 439.122 1056.77 432.031 1059.59 425.079Z" fill="white"/>
<path d="M1010.53 507.988L1010.46 508.188C1010.15 509.113 1009.8 510.035 1009.41 510.951C1007.88 515.269 1006.21 519.502 1004.43 523.701C1002.29 528.849 1000 533.924 997.674 539.023C995.347 544.121 992.875 549.063 990.424 553.994C987.973 558.925 985.245 563.884 982.343 568.678C984.142 563.356 986.206 558.171 988.357 553.042C990.507 547.914 992.792 542.788 995.091 537.732C997.391 532.677 999.867 527.652 1002.45 522.672C1004.48 518.704 1006.57 514.753 1008.92 510.94L1010.49 508.247L1010.53 507.988Z" fill="white"/>
<path d="M1102.17 499.097C1096.57 499.241 1090.98 499.086 1085.41 498.837C1079.85 498.588 1074.27 498.185 1068.72 497.77C1063.16 497.356 1057.51 496.782 1052.06 496.042C1047.55 495.5 1043.06 494.864 1038.57 494.043L1035.64 493.568C1035.64 493.568 1035.64 493.568 1035.43 493.529L1035.67 493.525L1038.78 493.495C1043.32 493.52 1047.73 493.615 1052.18 493.687C1057.77 493.924 1063.32 494.339 1068.89 494.773C1074.46 495.208 1079.98 495.799 1085.52 496.513C1091.07 497.227 1096.66 498.021 1102.17 499.097Z" fill="white"/>
<path d="M811.736 102.749L710.816 79.6294L696.153 143.635L797.073 166.755L811.736 102.749Z" fill="#EBEBEB"/>
<path d="M811.72 102.816C806.748 105.778 801.748 108.558 796.754 111.462C791.76 114.366 786.708 117.064 781.732 119.815C776.756 122.565 771.237 125.542 766.001 128.356L765.534 128.634L751.567 136.055L750.878 136.387L750.418 135.791L741.078 123.014L740.759 122.573C737.246 117.761 733.76 112.908 730.302 108.015C726.999 103.386 723.681 98.6652 720.427 93.9766C717.172 89.288 713.837 84.4933 710.717 79.6777C714.283 83.9997 717.741 88.4895 721.251 92.9037C724.761 97.3179 728.198 101.821 731.628 106.356C735.462 111.347 739.276 116.398 743.071 121.508C745.918 125.297 748.757 129.119 751.597 132.942C755.8 130.733 760.025 128.511 764.234 126.356C769.867 123.441 775.5 120.549 781.135 117.68C786.184 115.122 791.242 112.6 796.309 110.116C801.576 107.625 806.662 105.162 811.72 102.816Z" fill="white"/>
<path d="M743 122.963L742.861 123.036C742.221 123.38 741.563 123.703 740.886 124.004C737.864 125.572 734.813 127.028 731.712 128.403C727.938 130.115 724.12 131.711 720.268 133.3C716.417 134.889 712.567 136.32 708.733 137.755C704.899 139.19 700.902 140.5 696.892 141.631C700.57 139.652 704.322 137.883 708.093 136.189C711.863 134.494 715.706 132.868 719.52 131.288C723.334 129.709 727.229 128.235 731.159 126.84C734.274 125.713 737.414 124.628 740.629 123.752L742.849 123.086L743 122.963Z" fill="white"/>
<path d="M797.296 164.633C794.179 161.868 791.221 158.947 788.324 155.988C785.427 153.029 782.602 149.981 779.795 146.937C776.987 143.893 774.21 140.715 771.624 137.547C769.447 134.963 767.332 132.34 765.309 129.616L763.957 127.869C763.957 127.869 763.957 127.869 763.863 127.743L763.994 127.86L765.703 129.426C768.153 131.74 770.502 134.03 772.884 136.328C775.798 139.292 778.606 142.336 781.409 145.396C784.213 148.457 786.915 151.582 789.564 154.783C792.213 157.983 794.847 161.25 797.296 164.633Z" fill="white"/>
<g opacity="0.1">
<path d="M399.322 488.445L394.078 486.358L394.84 484.385L400.112 486.471L399.322 488.445Z" fill="#263238"/>
<path d="M406.032 453.119L424.64 504.289L385.536 473.728L236 419.513L406.032 453.119Z" fill="#247331"/>
<path opacity="0.1" d="M406.032 453.119L424.64 504.289L385.536 473.728L236 419.513L406.032 453.119Z" fill="black"/>
<path d="M380.517 485.654L424.639 504.289L385.536 473.728L380.517 485.654Z" fill="#263238"/>
<path d="M385.536 473.728L236 419.513L358.64 539.192L385.536 473.728Z" fill="#247331"/>
<path d="M406.032 453.119L468.17 413L236 419.513L406.032 453.119Z" fill="#247331"/>
</g>
<path d="M121.372 193.004C129.482 193.064 137.403 190.554 143.999 185.834C150.595 181.115 155.528 174.428 158.089 166.732C160.65 159.036 160.709 150.727 158.256 142.996C155.804 135.265 150.967 128.509 144.438 123.697C137.909 118.885 130.024 116.263 121.914 116.209C113.803 116.154 105.884 118.669 99.2907 123.393C92.6977 128.117 87.7699 134.807 85.2137 142.505C82.6576 150.202 82.6044 158.511 85.0618 166.241C87.4613 173.995 92.2812 180.777 98.8153 185.593C105.349 190.41 113.254 193.007 121.372 193.004Z" fill="#EBEBEB"/>
<path d="M109.391 156.951C110.592 158.925 112.352 160.497 114.447 161.471C116.542 162.444 118.879 162.774 121.162 162.419C123.445 162.064 125.571 161.041 127.272 159.477C128.973 157.914 130.172 155.882 130.718 153.637C131.264 151.392 131.132 149.036 130.339 146.866C129.546 144.696 128.127 142.81 126.262 141.447C124.397 140.083 122.17 139.303 119.862 139.206C117.553 139.108 115.268 139.697 113.295 140.898C111.984 141.696 110.844 142.744 109.938 143.982C109.033 145.221 108.38 146.626 108.018 148.116C107.655 149.607 107.59 151.154 107.825 152.67C108.061 154.186 108.593 155.641 109.391 156.951Z" fill="white"/>
<path d="M118.868 188.896L121.32 193.035C128.46 193.085 135.473 191.144 141.571 187.428C147.669 183.713 152.61 178.371 155.839 172.002L153.398 167.881C150.612 163.302 146.12 160.018 140.912 158.75C135.703 157.483 130.205 158.337 125.626 161.123C121.047 163.91 117.762 168.402 116.495 173.61C115.228 178.819 116.082 184.317 118.868 188.896Z" fill="white"/>
<g opacity="0.1">
<path d="M1320.1 85.2721L1313.23 105.768L1328.43 93.2324L1387.22 70.1416L1320.1 85.2721Z" fill="#247331"/>
<path opacity="0.1" d="M1320.1 85.2721L1313.23 105.768L1328.43 93.2324L1387.22 70.1416L1320.1 85.2721Z" fill="black"/>
<path d="M1328.43 93.2324L1387.22 70.1416L1339.8 118.941L1328.43 93.2324Z" fill="#247331"/>
<path d="M1320.1 85.272L1295 70L1387.22 70.1415L1320.1 85.272Z" fill="#247331"/>
</g>
</g>
<defs>
<clipPath id="clip0">
<rect width="1440" height="2298" fill="white"/>
</clipPath>
</defs>
</svg>
