<svg width="1246" height="956" viewBox="0 0 1246 956" fill="none" xmlns="http://www.w3.org/2000/svg">
<path d="M1125.26 477.262L1031.08 531.951L1065.76 591.684L1159.95 536.994L1125.26 477.262Z" fill="#EBEBEB"/>
<path d="M1125.3 477.324C1123.6 483.171 1121.75 488.898 1120 494.717C1118.25 500.535 1116.3 506.236 1114.45 511.924C1112.6 517.611 1110.49 523.862 1108.49 529.785L1108.33 530.334L1102.92 546.067L1102.63 546.818L1101.85 546.69L1085.49 543.574L1084.93 543.464C1078.78 542.287 1072.61 541.059 1066.44 539.781C1060.58 538.594 1054.64 537.347 1048.77 536.079C1042.9 534.812 1036.89 533.52 1031.04 532.059C1036.88 532.821 1042.76 533.789 1048.63 534.663C1054.5 535.536 1060.37 536.529 1066.27 537.553C1072.8 538.637 1079.36 539.781 1085.94 540.985C1090.85 541.854 1095.78 542.753 1100.71 543.653C1102.35 538.937 1104.01 534.196 1105.69 529.517C1107.93 523.231 1110.18 516.962 1112.46 510.712C1114.5 505.12 1116.58 499.549 1118.69 494.001C1120.95 488.304 1123.09 482.76 1125.3 477.324Z" fill="white"/>
<path d="M1086.93 542.155L1086.88 542.312C1086.63 543.035 1086.36 543.756 1086.06 544.473C1084.86 547.849 1083.56 551.159 1082.16 554.442C1080.49 558.468 1078.7 562.437 1076.88 566.423C1075.06 570.41 1073.13 574.275 1071.21 578.131C1069.3 581.987 1067.16 585.864 1064.89 589.613C1066.3 585.451 1067.91 581.397 1069.6 577.386C1071.28 573.376 1073.06 569.367 1074.86 565.414C1076.66 561.461 1078.6 557.532 1080.61 553.637C1082.2 550.535 1083.83 547.446 1085.68 544.464L1086.91 542.358L1086.93 542.155Z" fill="white"/>
<path d="M1158.59 535.203C1154.21 535.316 1149.84 535.195 1145.49 535C1141.14 534.805 1136.78 534.49 1132.43 534.165C1128.09 533.841 1123.67 533.393 1119.41 532.814C1115.88 532.39 1112.37 531.893 1108.86 531.251L1106.57 530.879C1106.57 530.879 1106.57 530.879 1106.4 530.849L1106.59 530.846L1109.03 530.822C1112.57 530.842 1116.02 530.916 1119.5 530.972C1123.87 531.158 1128.22 531.482 1132.57 531.822C1136.92 532.162 1141.24 532.624 1145.58 533.183C1149.91 533.741 1154.28 534.361 1158.59 535.203Z" fill="white"/>
<path d="M1019.64 331.864L941.727 314.015L930.407 363.43L1008.32 381.28L1019.64 331.864Z" fill="#EBEBEB"/>
<path d="M1019.63 331.916C1015.79 334.203 1011.93 336.349 1008.08 338.591C1004.22 340.833 1000.32 342.917 996.478 345.04C992.636 347.164 988.376 349.462 984.333 351.634L983.973 351.849L973.189 357.578L972.657 357.835L972.302 357.375L965.091 347.51L964.845 347.169C962.133 343.454 959.442 339.708 956.771 335.93C954.221 332.356 951.66 328.711 949.148 325.091C946.635 321.472 944.06 317.77 941.651 314.052C944.404 317.389 947.074 320.855 949.784 324.263C952.494 327.671 955.148 331.147 957.795 334.649C960.755 338.502 963.7 342.402 966.63 346.347C968.828 349.272 971.02 352.224 973.212 355.175C976.458 353.469 979.719 351.754 982.969 350.09C987.318 347.839 991.667 345.607 996.017 343.392C999.915 341.417 1003.82 339.47 1007.73 337.552C1011.8 335.629 1015.73 333.727 1019.63 331.916Z" fill="white"/>
<path d="M966.575 347.471L966.467 347.527C965.974 347.793 965.466 348.042 964.943 348.274C962.609 349.485 960.255 350.609 957.86 351.671C954.946 352.992 951.999 354.225 949.025 355.451C946.052 356.678 943.079 357.783 940.119 358.891C937.159 359.998 934.073 361.01 930.977 361.883C933.817 360.356 936.714 358.99 939.625 357.681C942.536 356.373 945.502 355.118 948.447 353.898C951.392 352.679 954.399 351.541 957.433 350.464C959.838 349.594 962.262 348.756 964.744 348.079L966.459 347.566L966.575 347.471Z" fill="white"/>
<path d="M1008.49 379.641C1006.09 377.507 1003.8 375.252 1001.57 372.967C999.331 370.682 997.15 368.329 994.983 365.979C992.815 363.629 990.671 361.176 988.674 358.73C986.994 356.735 985.36 354.71 983.799 352.607L982.755 351.258C982.755 351.258 982.755 351.258 982.683 351.16L982.784 351.251L984.103 352.46C985.994 354.246 987.808 356.015 989.647 357.789C991.897 360.077 994.065 362.427 996.229 364.79C998.394 367.153 1000.48 369.566 1002.52 372.037C1004.57 374.508 1006.6 377.03 1008.49 379.641Z" fill="white"/>
<g opacity="0.1">
<path d="M197.623 518.492L193.557 516.874L194.148 515.344L198.235 516.962L197.623 518.492Z" fill="#263238"/>
<path d="M202.825 491.104L217.251 530.776L186.934 507.082L71 465.049L202.825 491.104Z" fill="#247331"/>
<path opacity="0.1" d="M202.825 491.104L217.251 530.776L186.934 507.082L71 465.049L202.825 491.104Z" fill="black"/>
<path d="M183.044 516.328L217.251 530.776L186.934 507.082L183.044 516.328Z" fill="#263238"/>
<path d="M186.934 507.082L71 465.049L166.082 557.836L186.934 507.082Z" fill="#247331"/>
<path d="M202.825 491.104L251 460L71 465.049L202.825 491.104Z" fill="#247331"/>
</g>
<g opacity="0.1">
<path d="M286.381 359.745L283.896 358.757L284.257 357.822L286.755 358.81L286.381 359.745Z" fill="#263238"/>
<path d="M289.56 343.008L298.376 367.252L279.849 352.772L209 327.086L289.56 343.008Z" fill="#247331"/>
<path opacity="0.1" d="M289.56 343.008L298.376 367.252L279.849 352.772L209 327.086L289.56 343.008Z" fill="black"/>
<path d="M277.471 358.423L298.376 367.252L279.849 352.772L277.471 358.423Z" fill="#263238"/>
<path d="M279.849 352.772L209 327.086L267.106 383.789L279.849 352.772Z" fill="#247331"/>
<path d="M289.56 343.008L319 324L209 327.086L289.56 343.008Z" fill="#247331"/>
</g>
<path d="M121.48 198.205C127.847 198.311 134.047 196.378 139.191 192.684C144.334 188.989 148.158 183.723 150.113 177.64C152.069 171.557 152.055 164.97 150.075 158.824C148.094 152.677 144.249 147.286 139.09 143.424C133.93 139.562 127.722 137.428 121.356 137.326C114.989 137.225 108.791 139.162 103.649 142.86C98.508 146.558 94.6878 151.827 92.7365 157.911C90.7852 163.995 90.803 170.582 92.7874 176.727C94.7264 182.892 98.5583 188.304 103.722 192.169C108.885 196.034 115.109 198.149 121.48 198.205Z" fill="#EBEBEB"/>
<path d="M111.818 169.537C112.775 171.11 114.167 172.37 115.819 173.156C117.471 173.943 119.307 174.221 121.097 173.956C122.886 173.692 124.548 172.895 125.872 171.668C127.196 170.441 128.123 168.838 128.535 167.062C128.948 165.287 128.827 163.418 128.189 161.692C127.551 159.966 126.424 158.46 124.95 157.366C123.476 156.272 121.722 155.637 119.91 155.544C118.097 155.45 116.308 155.9 114.767 156.838C113.744 157.461 112.856 158.284 112.155 159.259C111.453 160.235 110.951 161.344 110.677 162.523C110.403 163.702 110.363 164.928 110.558 166.132C110.754 167.336 111.182 168.493 111.818 169.537V169.537Z" fill="white"/>
<path d="M119.486 194.931L121.44 198.229C127.045 198.321 132.536 196.832 137.296 193.93C142.056 191.028 145.896 186.828 148.385 181.802L146.44 178.517C144.219 174.867 140.67 172.231 136.573 171.189C132.475 170.147 128.166 170.784 124.591 172.961C121.017 175.138 118.471 178.675 117.514 182.795C116.556 186.915 117.266 191.281 119.486 194.931V194.931Z" fill="white"/>
<g opacity="0.1">
<path d="M1105.1 132.272L1098.23 152.768L1113.43 140.232L1172.22 117.142L1105.1 132.272Z" fill="#247331"/>
<path opacity="0.1" d="M1105.1 132.272L1098.23 152.768L1113.43 140.232L1172.22 117.142L1105.1 132.272Z" fill="black"/>
<path d="M1113.43 140.232L1172.22 117.142L1124.8 165.941L1113.43 140.232Z" fill="#247331"/>
<path d="M1105.1 132.272L1080 117L1172.22 117.142L1105.1 132.272Z" fill="#247331"/>
</g>
</svg>
