<svg width="1920" height="500" viewBox="0 0 1920 500" fill="none" xmlns="http://www.w3.org/2000/svg">
<g opacity="0.1">
<path d="M1480.54 270L1360.1 339.939L1404.46 416.327L1524.9 346.388L1480.54 270Z" fill="#EBEBEB"/>
<path d="M1480.59 270.08C1478.42 277.557 1476.06 284.881 1473.81 292.322C1471.57 299.762 1469.08 307.054 1466.72 314.327C1464.35 321.6 1461.66 329.594 1459.09 337.168L1458.89 337.871L1451.97 357.99L1451.6 358.951L1450.6 358.787L1429.69 354.802L1428.97 354.661C1421.1 353.156 1413.21 351.586 1405.32 349.952C1397.82 348.433 1390.23 346.838 1382.72 345.217C1375.22 343.596 1367.54 341.945 1360.05 340.076C1367.52 341.05 1375.04 342.289 1382.55 343.406C1390.05 344.522 1397.56 345.793 1405.1 347.103C1413.45 348.489 1421.84 349.952 1430.26 351.491C1436.54 352.602 1442.84 353.753 1449.14 354.903C1451.25 348.872 1453.36 342.809 1455.52 336.825C1458.38 328.786 1461.26 320.77 1464.17 312.777C1466.78 305.625 1469.44 298.502 1472.14 291.407C1475.03 284.122 1477.77 277.031 1480.59 270.08Z" fill="white"/>
<path d="M1431.53 352.988L1431.46 353.188C1431.15 354.113 1430.8 355.035 1430.41 355.951C1428.88 360.269 1427.21 364.502 1425.43 368.701C1423.29 373.849 1421 378.924 1418.67 384.023C1416.35 389.121 1413.88 394.063 1411.42 398.994C1408.97 403.925 1406.25 408.884 1403.34 413.678C1405.14 408.356 1407.21 403.171 1409.36 398.042C1411.51 392.914 1413.79 387.788 1416.09 382.732C1418.39 377.677 1420.87 372.652 1423.45 367.672C1425.48 363.704 1427.57 359.753 1429.92 355.94L1431.49 353.247L1431.53 352.988Z" fill="white"/>
<path d="M1523.17 344.097C1517.57 344.241 1511.98 344.086 1506.41 343.837C1500.85 343.588 1495.27 343.185 1489.72 342.77C1484.16 342.356 1478.51 341.782 1473.06 341.042C1468.55 340.5 1464.06 339.864 1459.57 339.043L1456.64 338.568C1456.64 338.568 1456.64 338.568 1456.43 338.529L1456.67 338.525L1459.78 338.495C1464.32 338.52 1468.73 338.615 1473.18 338.687C1478.77 338.924 1484.32 339.339 1489.89 339.773C1495.46 340.208 1500.98 340.799 1506.52 341.513C1512.07 342.227 1517.66 343.021 1523.17 344.097Z" fill="white"/>
</g>
<g opacity="0.1">
<path d="M436.166 391.235C446.257 391.309 456.113 388.186 464.321 382.314C472.528 376.441 478.666 368.121 481.852 358.545C485.039 348.969 485.112 338.631 482.061 329.011C479.009 319.391 472.99 310.985 464.867 304.997C456.743 299.009 446.932 295.748 436.84 295.68C426.748 295.612 416.894 298.741 408.69 304.619C400.487 310.497 394.355 318.822 391.175 328.399C387.994 337.977 387.928 348.316 390.986 357.934C393.971 367.583 399.969 376.022 408.099 382.014C416.229 388.007 426.065 391.238 436.166 391.235Z" fill="#EBEBEB"/>
<path d="M421.258 346.375C422.753 348.831 424.942 350.788 427.549 351.999C430.156 353.21 433.064 353.62 435.904 353.179C438.745 352.738 441.391 351.464 443.507 349.519C445.624 347.574 447.116 345.044 447.796 342.251C448.475 339.458 448.311 336.526 447.324 333.826C446.337 331.126 444.571 328.78 442.251 327.083C439.93 325.387 437.159 324.416 434.287 324.295C431.415 324.173 428.571 324.906 426.115 326.401C424.485 327.393 423.066 328.697 421.939 330.238C420.812 331.779 420 333.527 419.549 335.382C419.098 337.237 419.017 339.162 419.31 341.049C419.603 342.935 420.265 344.745 421.258 346.375V346.375Z" fill="white"/>
<path d="M433.051 386.124L436.101 391.273C444.985 391.336 453.712 388.92 461.299 384.297C468.887 379.674 475.035 373.027 479.053 365.103L476.016 359.975C472.548 354.277 466.96 350.19 460.479 348.614C453.998 347.037 447.156 348.099 441.459 351.567C435.761 355.034 431.675 360.623 430.098 367.104C428.521 373.584 429.583 380.426 433.051 386.124V386.124Z" fill="white"/>
</g>
<g opacity="0.1">
<path d="M1658.1 202.272L1651.23 222.768L1666.43 210.232L1725.22 187.142L1658.1 202.272Z" fill="white"/>
<path opacity="0.1" d="M1658.1 202.272L1651.23 222.768L1666.43 210.232L1725.22 187.142L1658.1 202.272Z" fill="black"/>
<path d="M1666.43 210.232L1725.22 187.142L1677.8 235.941L1666.43 210.232Z" fill="white"/>
<path d="M1658.1 202.272L1633 187L1725.22 187.142L1658.1 202.272Z" fill="white"/>
</g>
<g opacity="0.1">
<path d="M303.91 132.006L315.148 165.566L290.258 145.04L194 107.232L303.91 132.006Z" fill="white"/>
<path opacity="0.1" d="M303.91 132.006L315.148 165.566L290.258 145.04L194 107.232L303.91 132.006Z" fill="black"/>
<path d="M290.258 145.04L194 107.232L271.643 187.134L290.258 145.04Z" fill="white"/>
<path d="M303.91 132.006L345 107L194 107.232L303.91 132.006Z" fill="white"/>
</g>
<g opacity="0.1" clip-path="url(#clip0)">
<path d="M1309.18 107.783C1311.39 113.825 1308.27 120.537 1302.23 122.746C1296.19 124.955 1289.48 121.837 1287.27 115.794C1285.06 109.752 1288.18 103.04 1294.22 100.831C1300.26 98.6224 1306.97 101.741 1309.18 107.783ZM1308.98 126.633C1307.56 127.613 1306.09 128.435 1304.52 129.008C1299.95 130.668 1294.91 130.45 1290.51 128.403C1286.1 126.355 1282.68 122.644 1281.01 118.083C1279.32 113.481 1279.62 108.653 1281.37 104.501C1280.54 104.012 1279.62 103.713 1278.67 103.626C1277.72 103.538 1276.76 103.664 1275.86 103.995C1272.41 105.254 1270.63 109.101 1271.88 112.545L1272.22 113.453C1263.93 119.607 1260.69 130.477 1264.24 140.182L1271.11 158.967L1267.14 167.517L1268.28 170.648L1324.63 150.048L1323.49 146.917L1314.94 142.944L1308.98 126.633ZM1299.89 169.74C1303.37 168.47 1305.13 164.665 1303.86 161.19L1291.34 165.767C1291.95 167.428 1293.19 168.779 1294.79 169.524C1296.4 170.269 1298.23 170.347 1299.89 169.74Z" fill="white"/>
</g>
<g opacity="0.1" clip-path="url(#clip1)">
<path d="M561.598 175.32L553.042 163.766L557.115 160.749L562.659 168.206L581.695 154.109L584.707 158.207L561.598 175.32ZM572.622 135.847L548.498 142.53L546.25 157.613C544.17 171.566 551.878 186.052 564.377 191.153C577.821 189.919 589.42 178.311 591.499 164.359L593.748 149.276L572.622 135.847Z" fill="white"/>
</g>
<defs>
<clipPath id="clip0">
<rect width="80" height="80" fill="white" transform="translate(1236 111.467) rotate(-20.0801)"/>
</clipPath>
<clipPath id="clip1">
<rect width="61" height="61" fill="white" transform="translate(542.83 128.836) rotate(8.4789)"/>
</clipPath>
</defs>
</svg>
